<?xml version="1.0" encoding="utf-8"?>
<!-- Generator: Adobe Illustrator 23.1.0, SVG Export Plug-In . SVG Version: 6.00 Build 0)  -->
<svg version="1.1" id="图层_1" xmlns="http://www.w3.org/2000/svg" xmlns:xlink="http://www.w3.org/1999/xlink" x="0px" y="0px"
	 viewBox="0 0 283.46 283.46" style="enable-background:new 0 0 283.46 283.46;" xml:space="preserve">
<style type="text/css">
	.st0{fill:#383838;}
	.st1{display:none;stroke:#FFFFFF;stroke-width:25;stroke-linecap:round;stroke-miterlimit:10;}
	.st2{display:none;fill:none;stroke:#E60012;stroke-width:25;stroke-linecap:round;stroke-miterlimit:10;}
	.st3{display:none;fill:#FFFFFF;}
</style>
<path class="st0" d="M25,32.93c0.8-72.42,243.86,51.63,243.19,111.98C267.52,205.26,21.78,323.9,22.58,251.48 M72.81,124.09
	c-11.95,0-21.64,9.69-21.64,21.64c0,11.95,9.69,21.64,21.64,21.64c11.95,0,21.64-9.69,21.64-21.64
	C94.45,133.78,84.76,124.09,72.81,124.09z M118.51,104.11c-11.95,0-21.64,9.69-21.64,21.64c0,11.95,9.69,21.64,21.64,21.64
	c11.95,0,21.64-9.69,21.64-21.64C140.16,113.8,130.47,104.11,118.51,104.11z M162.27,124.09c-11.95,0-21.64,9.69-21.64,21.64
	c0,11.95,9.69,21.64,21.64,21.64c11.95,0,21.64-9.69,21.64-21.64C183.91,133.78,174.22,124.09,162.27,124.09z M162.27,168.82
	c-11.95,0-21.64,9.69-21.64,21.64c0,11.95,9.69,21.64,21.64,21.64c11.95,0,21.64-9.69,21.64-21.64
	C183.91,178.51,174.22,168.82,162.27,168.82z M162.27,79.36c-11.95,0-21.64,9.69-21.64,21.64c0,11.95,9.69,21.64,21.64,21.64
	c11.95,0,21.64-9.69,21.64-21.64C183.91,89.05,174.22,79.36,162.27,79.36z M72.81,79.36c-11.95,0-21.64,9.69-21.64,21.64
	c0,11.95,9.69,21.64,21.64,21.64c11.95,0,21.64-9.69,21.64-21.64C94.45,89.05,84.76,79.36,72.81,79.36z M72.81,168.82
	c-11.95,0-21.64,9.69-21.64,21.64c0,11.95,9.69,21.64,21.64,21.64c11.95,0,21.64-9.69,21.64-21.64
	C94.45,178.51,84.76,168.82,72.81,168.82z"/>
<g>
	<line class="st1" x1="279.13" y1="103.19" x2="279.13" y2="171.83"/>
</g>
<line class="st2" x1="672.98" y1="109.29" x2="725.99" y2="109.29"/>
<path class="st3" d="M963.32,236.85c0,23.48-19.04,42.52-42.52,42.52c-23.48,0-42.52-19.04-42.52-42.52
	c0-23.48,19.04-42.52,42.52-42.52C944.28,194.33,963.32,213.36,963.32,236.85z"/>
<path class="st3" d="M963.32,61.1c0,23.48-19.04,42.52-42.52,42.52c-23.48,0-42.52-19.04-42.52-42.52
	c0-23.48,19.04-42.52,42.52-42.52C944.28,18.58,963.32,37.62,963.32,61.1z"/>
</svg>
