<?xml version="1.0" encoding="utf-8"?>
<!-- Generator: Adobe Illustrator 23.1.0, SVG Export Plug-In . SVG Version: 6.00 Build 0)  -->
<svg version="1.1" id="图层_1" xmlns="http://www.w3.org/2000/svg" xmlns:xlink="http://www.w3.org/1999/xlink" x="0px" y="0px"
	 viewBox="0 0 324 306" style="enable-background:new 0 0 324 306;" xml:space="preserve">
<style type="text/css">
	.st0{fill:#FFFFFF;}
	.st1{display:none;stroke:#FFFFFF;stroke-width:25;stroke-linecap:round;stroke-miterlimit:10;}
	.st2{display:none;fill:none;stroke:#E60012;stroke-width:25;stroke-linecap:round;stroke-miterlimit:10;}
	.st3{display:none;fill:#FFFFFF;}
</style>
<path class="st0" d="M39.51,38.95c1.01-77.33,260.29,55.65,259.45,120.1S35.45,349.65,36.46,272.32 M88.36,137.76
	c-12.76,0-23.11,10.35-23.11,23.11c0,12.76,10.35,23.11,23.11,23.11c12.76,0,23.11-10.35,23.11-23.11
	C111.47,148.11,101.13,137.76,88.36,137.76z M137.17,116.42c-12.76,0-23.11,10.35-23.11,23.11c0,12.76,10.35,23.11,23.11,23.11
	c12.76,0,23.11-10.35,23.11-23.11C160.28,126.77,149.93,116.42,137.17,116.42z M183.89,137.76c-12.76,0-23.11,10.35-23.11,23.11
	c0,12.76,10.35,23.11,23.11,23.11c12.76,0,23.11-10.35,23.11-23.11C207,148.11,196.65,137.76,183.89,137.76z M183.89,185.53
	c-12.76,0-23.11,10.35-23.11,23.11c0,12.76,10.35,23.11,23.11,23.11c12.76,0,23.11-10.35,23.11-23.11
	C207,195.87,196.65,185.53,183.89,185.53z M183.89,90c-12.76,0-23.11,10.35-23.11,23.11c0,12.76,10.35,23.11,23.11,23.11
	c12.76,0,23.11-10.35,23.11-23.11C207,100.35,196.65,90,183.89,90z M88.36,90c-12.76,0-23.11,10.35-23.11,23.11
	c0,12.76,10.35,23.11,23.11,23.11c12.76,0,23.11-10.35,23.11-23.11C111.47,100.35,101.13,90,88.36,90z M88.36,185.53
	c-12.76,0-23.11,10.35-23.11,23.11c0,12.76,10.35,23.11,23.11,23.11c12.76,0,23.11-10.35,23.11-23.11
	C111.47,195.87,101.13,185.53,88.36,185.53z"/>
<g>
	<line class="st1" x1="299.4" y1="114.46" x2="299.4" y2="183.09"/>
</g>
<line class="st2" x1="693.25" y1="120.56" x2="746.26" y2="120.56"/>
<path class="st3" d="M983.59,248.12c0,23.48-19.04,42.52-42.52,42.52c-23.48,0-42.52-19.04-42.52-42.52
	c0-23.48,19.04-42.52,42.52-42.52C964.55,205.6,983.59,224.63,983.59,248.12z"/>
<path class="st3" d="M983.59,72.37c0,23.48-19.04,42.52-42.52,42.52c-23.48,0-42.52-19.04-42.52-42.52
	c0-23.48,19.04-42.52,42.52-42.52C964.55,29.85,983.59,48.88,983.59,72.37z"/>
</svg>
